<svg width="15" height="15" xmlns="http://www.w3.org/2000/svg">
 <!-- Created with Method Draw - http://github.com/duopixel/Method-Draw/ -->

 <g>
  <title>background</title>
  <rect fill="#fff" id="canvas_background" height="17" width="17" y="-1" x="-1"/>
  <g display="none" overflow="visible" y="0" x="0" height="100%" width="100%" id="canvasGrid">
   <rect fill="url(#gridpattern)" stroke-width="0" y="0" x="0" height="100%" width="100%"/>
  </g>
 </g>
 <g>
  <title>Layer 1</title>
  <g stroke="null" transform="rotate(90 7.447716712951661,7.57911491394043) " id="svg_4">
   <g stroke="null" transform="matrix(0.05204136235043298,0,0,0.030650615453992062,0.017730245031811975,-2.0650969254965297) " id="svg_5">
    <path stroke="null" id="svg_6" d="m262.288542,337.018596l-194.287,194.281c-12.359,12.365 -32.397,12.365 -44.75,0c-12.354,-12.354 -12.354,-32.391 0,-44.744l171.914,-171.909l-171.909,-171.903c-12.354,-12.359 -12.354,-32.394 0,-44.748c12.354,-12.359 32.391,-12.359 44.75,0l194.287,194.284c6.177,6.18 9.262,14.271 9.262,22.366c0,8.099 -3.091,16.196 -9.267,22.373z"/>
   </g>
   <g stroke="null" transform="matrix(0.05204136235043298,0,0,0.030650615453992062,0.017730245031811975,-2.0650969254965297) " id="svg_7"/>
   <g stroke="null" transform="matrix(0.05204136235043298,0,0,0.030650615453992062,0.017730245031811975,-2.0650969254965297) " id="svg_8"/>
   <g stroke="null" transform="matrix(0.05204136235043298,0,0,0.030650615453992062,0.017730245031811975,-2.0650969254965297) " id="svg_9"/>
   <g stroke="null" transform="matrix(0.05204136235043298,0,0,0.030650615453992062,0.017730245031811975,-2.0650969254965297) " id="svg_10"/>
   <g stroke="null" transform="matrix(0.05204136235043298,0,0,0.030650615453992062,0.017730245031811975,-2.0650969254965297) " id="svg_11"/>
   <g stroke="null" transform="matrix(0.05204136235043298,0,0,0.030650615453992062,0.017730245031811975,-2.0650969254965297) " id="svg_12"/>
   <g stroke="null" transform="matrix(0.05204136235043298,0,0,0.030650615453992062,0.017730245031811975,-2.0650969254965297) " id="svg_13"/>
   <g stroke="null" transform="matrix(0.05204136235043298,0,0,0.030650615453992062,0.017730245031811975,-2.0650969254965297) " id="svg_14"/>
   <g stroke="null" transform="matrix(0.05204136235043298,0,0,0.030650615453992062,0.017730245031811975,-2.0650969254965297) " id="svg_15"/>
   <g stroke="null" transform="matrix(0.05204136235043298,0,0,0.030650615453992062,0.017730245031811975,-2.0650969254965297) " id="svg_16"/>
   <g stroke="null" transform="matrix(0.05204136235043298,0,0,0.030650615453992062,0.017730245031811975,-2.0650969254965297) " id="svg_17"/>
   <g stroke="null" transform="matrix(0.05204136235043298,0,0,0.030650615453992062,0.017730245031811975,-2.0650969254965297) " id="svg_18"/>
   <g stroke="null" transform="matrix(0.05204136235043298,0,0,0.030650615453992062,0.017730245031811975,-2.0650969254965297) " id="svg_19"/>
   <g stroke="null" transform="matrix(0.05204136235043298,0,0,0.030650615453992062,0.017730245031811975,-2.0650969254965297) " id="svg_20"/>
   <g stroke="null" transform="matrix(0.05204136235043298,0,0,0.030650615453992062,0.017730245031811975,-2.0650969254965297) " id="svg_21"/>
  </g>
 </g>
</svg>